<svg width="3143" height="1698" viewBox="0 0 3143 1698" fill="none" xmlns="http://www.w3.org/2000/svg">
<rect x="20" y="20" width="3103" height="1658" rx="91" fill="#B7785E" stroke="black" stroke-width="40"/>
<rect x="20" y="20" width="193" height="1658" rx="91" fill="white" stroke="black" stroke-width="40"/>
<rect x="530" y="43" width="37" height="1613" rx="18.5" fill="black"/>
<rect x="900" y="43" width="37" height="1613" rx="18.5" fill="black"/>
<rect x="1280" y="43" width="37" height="1613" rx="18.5" fill="black"/>
<rect x="1660" y="43" width="37" height="1613" rx="18.5" fill="black"/>
<rect x="2040" y="43" width="37" height="1613" rx="18.5" fill="black"/>
<rect x="2420" y="43" width="37" height="1613" rx="18.5" fill="black"/>
<rect x="2790" y="43" width="37" height="1613" rx="18.5" fill="black"/>
<rect x="238" y="1493" width="2860" height="44" rx="20" fill="#A8A689"/>
<rect x="238" y="1213" width="2860" height="44" rx="20" fill="#A8A689"/>
<rect x="238" y="953" width="2860" height="44" rx="20" fill="#A8A689"/>
<rect x="238" y="683" width="2860" height="44" rx="20" fill="#A8A689"/>
<rect x="238" y="413" width="2860" height="44" rx="20" fill="#A8A689"/>
<rect x="238" y="153" width="2860" height="44" rx="20" fill="#A8A689"/>
</svg>
